<svg xmlns="http://www.w3.org/2000/svg" xmlns:xlink="http://www.w3.org/1999/xlink" id="a" viewBox="0 0 171 62"><defs><style>.f{fill:url(#e);}.f,.g,.h,.i{fill-rule:evenodd;}.g{fill:url(#d);}.h{fill:url(#b);}.i{fill:url(#c);}.j{fill:#fff;}.k{fill:#161e44;}</style><linearGradient id="b" x1="1459.93" y1="-1063.42" x2="1458.33" y2="-1062.6" gradientTransform="translate(-16955.32 23998.82) scale(11.64 22.55)" gradientUnits="userSpaceOnUse"><stop offset="0" stop-color="#4896d1"></stop><stop offset="0" stop-color="#4998d2"></stop><stop offset=".26" stop-color="#41b8ea"></stop><stop offset=".51" stop-color="#3fc6f1"></stop><stop offset=".76" stop-color="#55c8e8"></stop><stop offset="1" stop-color="#5ac8e7"></stop></linearGradient><linearGradient id="c" x1="1423.43" y1="-1065.5" x2="1420.5" y2="-1065.5" gradientTransform="translate(-12965.69 8235.55) scale(9.15 7.7)" gradientUnits="userSpaceOnUse"><stop offset="0" stop-color="#fddf00"></stop><stop offset=".41" stop-color="#fdbc11"></stop><stop offset=".78" stop-color="#f9a31a"></stop><stop offset="1" stop-color="#f89b1c"></stop></linearGradient><linearGradient id="d" x1="1490.38" y1="-1064.45" x2="1488.7" y2="-1062.27" gradientTransform="translate(-22343.94 12357.37) scale(15.02 11.58)" gradientUnits="userSpaceOnUse"><stop offset="0" stop-color="#ee3f49"></stop><stop offset="1" stop-color="#c11e63"></stop></linearGradient><linearGradient id="e" x1="1489.09" y1="-1065.57" x2="1489.84" y2="-1064.6" gradientTransform="translate(-22343.94 12339.4) scale(15.02 11.57)" gradientUnits="userSpaceOnUse"><stop offset="0" stop-color="#319f71"></stop><stop offset=".07" stop-color="#2ba670"></stop><stop offset=".48" stop-color="#4ab870"></stop><stop offset=".8" stop-color="#5dbc6a"></stop><stop offset="1" stop-color="#66bd68"></stop></linearGradient></defs><rect width="171" height="62" rx="15" ry="15" style="fill:#fff;"></rect><g><g><path d="M65.69,15.81v7.91h-1.07v-7.91h1.07Zm-.89,7.91v-1h4.37v1h-4.37Z" style="fill:#161e44;"></path><path d="M71.72,23.85c-.57,0-1.02-.15-1.34-.45-.32-.3-.49-.69-.49-1.17s.17-.88,.53-1.18c.35-.3,.84-.47,1.47-.52l1.69-.13v-.15c0-.3-.05-.54-.16-.72s-.26-.31-.45-.38c-.19-.08-.4-.12-.65-.12-.43,0-.76,.09-1,.27-.24,.18-.36,.43-.36,.76h-.9c0-.37,.09-.7,.28-.97,.19-.28,.46-.49,.8-.65,.35-.15,.75-.23,1.21-.23s.83,.08,1.17,.23c.33,.16,.59,.39,.78,.71s.28,.72,.28,1.2v3.36h-.88l-.11-.86c-.14,.31-.38,.55-.72,.73-.34,.18-.72,.27-1.15,.27Zm.3-.8c.49,0,.87-.15,1.15-.44s.42-.69,.42-1.2v-.28l-1.37,.11c-.45,.04-.78,.15-.98,.32-.2,.17-.3,.38-.3,.65,0,.28,.1,.5,.29,.64,.19,.14,.46,.21,.79,.21Z" style="fill:#161e44;"></path><path d="M75.56,22.17h.98c0,.27,.1,.48,.3,.64,.2,.16,.46,.24,.8,.24,.36,0,.65-.07,.84-.21,.2-.14,.3-.33,.3-.57,0-.17-.05-.32-.16-.44-.11-.12-.3-.21-.57-.28l-.94-.22c-.47-.12-.83-.3-1.06-.54-.23-.24-.34-.56-.34-.95,0-.33,.09-.61,.26-.85s.41-.43,.71-.56,.65-.2,1.04-.2,.73,.07,1.02,.21c.29,.14,.51,.33,.68,.58s.25,.54,.26,.89h-.98c0-.28-.1-.49-.27-.65-.18-.15-.42-.23-.73-.23s-.57,.07-.74,.21c-.18,.14-.26,.33-.26,.57,0,.36,.26,.6,.79,.73l.94,.23c.45,.1,.79,.27,1.02,.5,.23,.23,.34,.54,.34,.94,0,.34-.09,.63-.27,.88-.18,.25-.43,.44-.75,.58-.32,.14-.69,.2-1.12,.2-.63,0-1.13-.15-1.5-.46-.37-.31-.56-.71-.56-1.23Z" style="fill:#161e44;"></path><path d="M80.33,18.37h3.13v.86h-3.13v-.86Zm2.08,5.35h-1.03v-7.02h1.03v7.02Z" style="fill:#161e44;"></path><path d="M88.39,23.72h-1.03v-5.35h.93l.11,.82c.17-.31,.41-.55,.73-.72s.67-.26,1.04-.26c.7,0,1.22,.2,1.55,.6,.34,.4,.5,.94,.5,1.63v3.27h-1.03v-3.04c0-.54-.12-.93-.35-1.17-.23-.24-.55-.36-.94-.36-.48,0-.85,.16-1.12,.47-.27,.31-.4,.73-.4,1.26v2.83Z" style="fill:#161e44;"></path><path d="M95.96,23.85c-.52,0-.98-.12-1.38-.36-.4-.24-.71-.57-.94-.98-.23-.42-.34-.91-.34-1.46s.11-1.05,.33-1.48c.22-.42,.53-.75,.92-1,.39-.24,.84-.36,1.36-.36s.95,.11,1.33,.33c.38,.22,.67,.53,.88,.92,.21,.39,.31,.86,.31,1.39v.38h-4.58l.02-.68h3.53c0-.44-.13-.8-.41-1.07-.27-.27-.63-.4-1.08-.4-.34,0-.64,.07-.88,.22-.24,.15-.43,.37-.56,.66-.13,.29-.19,.63-.19,1.03,0,.64,.15,1.14,.44,1.48,.29,.35,.71,.52,1.26,.52,.4,0,.73-.08,.99-.24,.25-.16,.43-.39,.51-.7h.96c-.13,.57-.41,1.01-.84,1.32-.43,.31-.98,.47-1.64,.47Z" style="fill:#161e44;"></path><path d="M101.73,23.85c-.52,0-.96-.12-1.33-.36-.37-.24-.66-.57-.86-.99-.2-.42-.3-.9-.3-1.44s.1-1.03,.31-1.46,.5-.76,.88-1.01c.38-.25,.83-.37,1.36-.37,.42,0,.79,.09,1.11,.26,.32,.17,.58,.43,.76,.76v-3.57h1.02v8.05h-.92l-.09-.97c-.17,.36-.43,.63-.77,.82-.34,.19-.72,.28-1.15,.28Zm.21-.93c.35,0,.65-.08,.9-.24,.25-.16,.45-.38,.59-.67,.14-.28,.21-.61,.21-.98s-.07-.7-.21-.98c-.14-.28-.33-.5-.59-.66-.25-.16-.55-.24-.9-.24s-.65,.08-.9,.25c-.25,.16-.44,.39-.57,.67-.13,.28-.2,.6-.2,.97s.07,.7,.2,.98c.13,.28,.32,.51,.57,.67,.25,.16,.55,.24,.9,.24Z" style="fill:#161e44;"></path><path d="M109.14,26.12v-7.75h.93l.08,.96c.17-.37,.44-.65,.78-.84,.35-.19,.73-.28,1.15-.28,.51,0,.95,.12,1.32,.36,.37,.24,.66,.57,.86,.98,.2,.42,.3,.9,.3,1.45s-.1,1.04-.29,1.47c-.19,.43-.47,.77-.84,1.02-.37,.25-.82,.37-1.35,.37-.43,0-.81-.09-1.15-.26-.33-.18-.59-.43-.77-.76v3.27h-1.03Zm1.04-5.07c0,.36,.07,.68,.2,.97,.13,.29,.33,.51,.58,.67,.25,.16,.55,.24,.9,.24s.65-.08,.9-.25c.25-.16,.44-.39,.58-.67,.13-.28,.2-.6,.2-.96s-.07-.7-.2-.98c-.14-.28-.33-.51-.58-.67s-.55-.24-.9-.24-.65,.08-.9,.24c-.25,.16-.44,.38-.58,.67-.14,.28-.2,.61-.2,.98Z" style="fill:#161e44;"></path><path d="M117.27,23.85c-.57,0-1.02-.15-1.34-.45-.33-.3-.49-.69-.49-1.17s.17-.88,.53-1.18c.35-.3,.84-.47,1.47-.52l1.69-.13v-.15c0-.3-.05-.54-.17-.72-.11-.18-.26-.31-.45-.38-.19-.08-.4-.12-.65-.12-.43,0-.76,.09-1,.27-.24,.18-.36,.43-.36,.76h-.9c0-.37,.09-.7,.28-.97,.19-.28,.46-.49,.8-.65,.35-.15,.75-.23,1.21-.23s.83,.08,1.17,.23c.33,.16,.59,.39,.78,.71,.19,.32,.28,.72,.28,1.2v3.36h-.88l-.11-.86c-.14,.31-.38,.55-.72,.73s-.72,.27-1.15,.27Zm.3-.8c.49,0,.87-.15,1.15-.44s.42-.69,.42-1.2v-.28l-1.37,.11c-.45,.04-.78,.15-.98,.32-.2,.17-.3,.38-.3,.65,0,.28,.1,.5,.29,.64s.46,.21,.79,.21Zm.38-5.23c-.37,0-.68-.12-.92-.36-.24-.24-.36-.55-.36-.92,0-.25,.05-.47,.16-.66,.11-.19,.26-.34,.46-.45,.2-.11,.42-.17,.66-.17s.46,.06,.66,.17,.35,.26,.46,.45c.11,.19,.17,.41,.17,.66s-.06,.46-.17,.65-.27,.35-.46,.46c-.19,.11-.41,.17-.66,.17Zm0-.61c.2,0,.35-.06,.46-.19,.11-.13,.17-.29,.17-.49s-.06-.35-.18-.48c-.12-.13-.27-.19-.46-.19s-.33,.06-.45,.19c-.12,.12-.18,.28-.18,.48s.06,.36,.17,.49c.12,.13,.27,.19,.46,.19Z" style="fill:#161e44;"></path></g><g><path d="M69.81,33.28c-.84,0-1.56,.19-2.16,.58-.6,.39-1.07,.93-1.39,1.61-.32,.69-.48,1.5-.48,2.42s.17,1.74,.51,2.41c.34,.67,.82,1.18,1.43,1.53,.61,.35,1.32,.53,2.12,.53,.51,0,.97-.07,1.41-.19,.43-.13,.81-.33,1.13-.61,.32-.27,.58-.63,.77-1.06s.28-.94,.28-1.52v-1.1l.74,.76h-4.65v-1.4h5.39v6.44h-1.32l-.16-2.16,.21,.26c-.17,.39-.45,.74-.82,1.05-.38,.31-.83,.56-1.36,.75s-1.11,.28-1.74,.28c-1.1,0-2.07-.25-2.91-.75-.84-.5-1.5-1.2-1.97-2.09s-.71-1.94-.71-3.15,.24-2.23,.72-3.15c.48-.92,1.15-1.63,2.01-2.15s1.86-.78,3-.78c.85,0,1.63,.15,2.33,.46,.7,.31,1.28,.74,1.74,1.29,.46,.55,.75,1.21,.86,1.96h-1.68c-.22-.74-.62-1.3-1.22-1.67-.6-.37-1.28-.56-2.06-.56Z" style="fill:#161e44;"></path><path d="M76.38,39.71c0-.81,.18-1.52,.53-2.15,.36-.62,.84-1.11,1.46-1.47,.62-.36,1.33-.53,2.12-.53s1.5,.18,2.12,.53,1.1,.84,1.45,1.47c.35,.62,.53,1.34,.53,2.15s-.18,1.52-.53,2.15c-.36,.62-.84,1.11-1.45,1.47s-1.32,.53-2.12,.53-1.5-.18-2.12-.53c-.62-.36-1.11-.85-1.46-1.47s-.53-1.34-.53-2.15Zm1.53,0c0,.55,.11,1.03,.33,1.45s.52,.75,.91,.99c.39,.24,.83,.35,1.34,.35s.95-.12,1.34-.35c.39-.24,.69-.57,.91-.99s.33-.9,.33-1.45-.11-1.05-.33-1.46c-.22-.41-.52-.74-.91-.98-.39-.24-.83-.36-1.34-.36s-.95,.12-1.34,.36c-.39,.24-.69,.56-.91,.98-.22,.42-.33,.9-.33,1.46Z" style="fill:#161e44;"></path><path d="M85.76,39.71c0-.81,.18-1.52,.53-2.15,.36-.62,.84-1.11,1.46-1.47s1.33-.53,2.12-.53,1.5,.18,2.12,.53,1.1,.84,1.45,1.47c.36,.62,.53,1.34,.53,2.15s-.18,1.52-.53,2.15c-.35,.62-.84,1.11-1.45,1.47s-1.32,.53-2.12,.53-1.5-.18-2.12-.53-1.11-.85-1.46-1.47-.53-1.34-.53-2.15Zm1.53,0c0,.55,.11,1.03,.33,1.45s.53,.75,.91,.99c.39,.24,.83,.35,1.34,.35s.95-.12,1.34-.35c.39-.24,.69-.57,.91-.99,.22-.42,.33-.9,.33-1.45s-.11-1.05-.33-1.46c-.22-.41-.53-.74-.91-.98-.39-.24-.83-.36-1.34-.36s-.95,.12-1.34,.36c-.39,.24-.69,.56-.91,.98-.22,.42-.33,.9-.33,1.46Z" style="fill:#161e44;"></path><path d="M95.16,39.51c0-.74,.15-1.41,.45-2.01,.3-.6,.73-1.07,1.29-1.43,.56-.36,1.22-.53,1.99-.53,.71,0,1.32,.17,1.82,.51,.51,.34,.87,.81,1.08,1.41l-.19,.21,.16-1.91h1.36v7.57c0,.83-.16,1.55-.48,2.16-.32,.61-.78,1.08-1.37,1.41-.59,.33-1.29,.5-2.1,.5-1.08,0-1.96-.29-2.65-.86-.69-.57-1.11-1.36-1.26-2.36h1.52c.1,.58,.36,1.03,.78,1.36,.42,.32,.96,.48,1.62,.48,.74,0,1.34-.22,1.78-.67,.45-.45,.67-1.05,.67-1.8v-2.23l.19,.21c-.21,.59-.58,1.06-1.11,1.4-.54,.34-1.16,.51-1.87,.51-.75,0-1.4-.17-1.95-.52-.55-.35-.97-.82-1.27-1.41-.3-.59-.44-1.26-.44-2Zm1.52-.03c0,.5,.1,.94,.3,1.34s.48,.72,.84,.95c.36,.24,.78,.36,1.27,.36,.52,0,.96-.11,1.32-.34,.37-.23,.65-.54,.85-.94s.3-.86,.3-1.37-.1-.97-.29-1.36c-.19-.39-.47-.69-.84-.92-.37-.23-.81-.34-1.32-.34s-.94,.12-1.3,.36c-.36,.24-.64,.55-.83,.95-.19,.39-.29,.83-.29,1.32Z" style="fill:#161e44;"></path><path d="M106.87,43.66h-1.52v-11.88h1.52v11.88Z" style="fill:#161e44;"></path><path d="M112.5,43.86c-.76,0-1.44-.17-2.03-.52s-1.06-.83-1.39-1.45c-.33-.62-.5-1.34-.5-2.16s.16-1.56,.49-2.18c.33-.62,.78-1.11,1.36-1.47,.58-.36,1.25-.53,2.01-.53s1.41,.16,1.96,.49c.55,.32,.99,.77,1.29,1.36,.31,.58,.46,1.26,.46,2.05v.56l-6.77,.02,.03-1.02h5.22c0-.66-.2-1.18-.6-1.58s-.93-.6-1.6-.6c-.51,0-.94,.11-1.3,.33s-.63,.54-.82,.97c-.19,.43-.28,.93-.28,1.53,0,.95,.21,1.68,.65,2.19,.43,.51,1.05,.77,1.86,.77,.59,0,1.08-.12,1.45-.36,.38-.24,.63-.58,.76-1.03h1.42c-.19,.84-.61,1.49-1.24,1.95-.64,.46-1.44,.69-2.42,.69Z" style="fill:#161e44;"></path><path d="M124.1,31.99v11.68h-1.58v-11.68h1.58Zm2.96,7.51h-3.31v-1.42h2.97c.79,0,1.39-.21,1.81-.64,.42-.42,.63-1,.63-1.72s-.21-1.3-.63-1.7c-.42-.4-1-.61-1.74-.61h-3.39v-1.42h3.67c.76,0,1.43,.16,1.99,.47,.56,.31,1,.75,1.31,1.31,.31,.56,.47,1.22,.47,1.97s-.16,1.37-.47,1.94c-.31,.57-.75,1.02-1.31,1.34-.56,.32-1.22,.48-1.99,.48Z" style="fill:#161e44;"></path><path d="M133.9,43.66h-1.52v-11.88h1.52v11.88Z" style="fill:#161e44;"></path><path d="M138.44,43.86c-.84,0-1.5-.22-1.98-.66-.48-.44-.72-1.02-.72-1.73s.26-1.3,.77-1.74c.52-.44,1.24-.69,2.16-.77l2.49-.19v-.23c0-.44-.08-.79-.24-1.06-.16-.26-.38-.45-.66-.57-.28-.11-.6-.17-.95-.17-.64,0-1.13,.13-1.48,.4s-.52,.64-.52,1.12h-1.32c0-.55,.14-1.03,.42-1.44,.28-.41,.67-.73,1.19-.95,.51-.23,1.11-.34,1.78-.34s1.23,.12,1.72,.35,.87,.58,1.15,1.05c.27,.47,.41,1.06,.41,1.77v4.96h-1.29l-.16-1.28c-.21,.45-.56,.81-1.06,1.07-.5,.26-1.07,.4-1.7,.4Zm.44-1.18c.72,0,1.29-.22,1.7-.65,.41-.44,.61-1.03,.61-1.77v-.42l-2.02,.16c-.67,.07-1.15,.22-1.45,.47s-.44,.57-.44,.95c0,.42,.14,.73,.43,.94,.29,.21,.67,.31,1.17,.31Z" style="fill:#161e44;"></path><path d="M145.19,35.77l2.78,7.69-.94,1.29-3.44-8.98h1.6Zm-1.39,11.43v-1.24h1.02c.25,0,.47-.02,.68-.07,.2-.05,.39-.15,.56-.31,.17-.16,.32-.4,.44-.73l3.33-9.08h1.57l-3.73,9.67c-.27,.68-.61,1.17-1.02,1.47-.41,.3-.92,.45-1.52,.45-.25,0-.48-.01-.69-.04-.22-.03-.42-.07-.63-.12Z" style="fill:#161e44;"></path></g><g><path d="M25.63,17.32c-.32,.35-.51,.88-.51,1.57v24.56c0,.69,.19,1.22,.52,1.55l.09,.07,13.76-13.76v-.31l-13.77-13.77-.09,.07Z" style="fill:url(#b); fill-rule:evenodd;"></path><path d="M44.07,35.92l-4.59-4.59v-.32l4.59-4.59,.1,.06,5.43,3.09c1.55,.88,1.55,2.32,0,3.21l-5.43,3.09-.1,.06Z" style="fill:url(#c); fill-rule:evenodd;"></path><path d="M44.17,35.85l-4.69-4.69-13.85,13.85c.51,.54,1.36,.6,2.31,.07l16.23-9.23" style="fill:url(#d); fill-rule:evenodd;"></path><path d="M44.17,26.47l-16.23-9.22c-.95-.54-1.8-.47-2.31,.07l13.85,13.83,4.69-4.69Z" style="fill:url(#e); fill-rule:evenodd;"></path></g></g></svg>