<?xml version="1.0" encoding="utf-8"?>
<!-- Generator: Adobe Illustrator 26.2.1, SVG Export Plug-In . SVG Version: 6.00 Build 0)  -->
<svg version="1.1" id="a" xmlns="http://www.w3.org/2000/svg" xmlns:xlink="http://www.w3.org/1999/xlink" x="0px" y="0px"
	 viewBox="0 0 171 62" style="enable-background:new 0 0 171 62;" xml:space="preserve">
<style type="text/css">
	.st0{fill:#FFFFFF;}
	.st1{fill-rule:evenodd;clip-rule:evenodd;fill:#171E44;}
	.st2{fill:#171E44;}
</style>
<path class="st0" d="M15,0h141c8.3,0,15,6.7,15,15v32c0,8.3-6.7,15-15,15H15C6.7,62,0,55.3,0,47V15C0,6.7,6.7,0,15,0z"/>
<g>
	<g>
		<path class="st1" d="M35,17.5c1.9-2.5,4.5-2.5,4.5-2.5s0.4,2.3-1.5,4.6c-2,2.4-4.3,2-4.3,2S33.3,19.7,35,17.5z"/>
		<path class="st1" d="M34,23.2c1,0,2.8-1.3,5.1-1.3c4,0,5.6,2.9,5.6,2.9s-3.1,1.6-3.1,5.4c0,4.4,3.9,5.9,3.9,5.9s-2.7,7.6-6.4,7.6
			c-1.7,0-3-1.1-4.8-1.1s-3.6,1.2-4.8,1.2c-3.3,0-7.5-7.2-7.5-13S25.6,22,29,22C31.2,22,32.8,23.2,34,23.2L34,23.2z"/>
	</g>
	<g>
		<path class="st2" d="M65.6,15.7v8h-1.1v-7.9C64.5,15.7,65.6,15.7,65.6,15.7z M64.7,23.7v-1h4.4v1H64.7z"/>
		<path class="st2" d="M71.6,23.8c-0.6,0-1-0.1-1.3-0.5c-0.3-0.3-0.5-0.7-0.5-1.2s0.2-0.9,0.5-1.2c0.3-0.3,0.8-0.5,1.5-0.5l1.7-0.1
			v-0.1c0-0.3-0.1-0.5-0.2-0.7c-0.1-0.2-0.3-0.3-0.4-0.4C72.7,19,72.4,19,72.2,19c-0.4,0-0.8,0.1-1,0.3c-0.2,0.2-0.4,0.4-0.4,0.8
			h-0.9c0-0.4,0.1-0.7,0.3-1c0.2-0.3,0.5-0.5,0.8-0.6s0.8-0.2,1.2-0.2s0.8,0.1,1.2,0.2s0.6,0.4,0.8,0.7s0.3,0.7,0.3,1.2v3.4h-0.9
			l-0.1-0.9c-0.1,0.3-0.4,0.5-0.7,0.7C72.4,23.7,72,23.8,71.6,23.8L71.6,23.8z M71.9,23c0.5,0,0.9-0.1,1.2-0.5
			c0.3-0.3,0.4-0.7,0.4-1.2v-0.3l-1.4,0.1c-0.4,0-0.8,0.1-1,0.3c-0.2,0.2-0.3,0.4-0.3,0.6c0,0.3,0.1,0.5,0.3,0.6S71.6,23,71.9,23
			L71.9,23z"/>
		<path class="st2" d="M75.5,22.1h1c0,0.3,0.1,0.5,0.3,0.6c0.2,0.2,0.5,0.2,0.8,0.2c0.4,0,0.7-0.1,0.8-0.2s0.3-0.3,0.3-0.6
			c0-0.2-0.1-0.3-0.2-0.4s-0.3-0.2-0.6-0.3L77,21.3c-0.5-0.1-0.8-0.3-1.1-0.5s-0.3-0.6-0.3-1c0-0.3,0.1-0.6,0.3-0.9
			c0.2-0.2,0.4-0.4,0.7-0.6s0.7-0.2,1.1-0.2s0.7,0.1,1,0.2s0.5,0.3,0.7,0.6c0.2,0.2,0.2,0.5,0.3,0.9h-1c0-0.3-0.1-0.5-0.3-0.6
			c-0.2-0.1-0.4-0.2-0.7-0.2s-0.6,0.1-0.8,0.2s-0.3,0.3-0.3,0.6c0,0.4,0.3,0.6,0.8,0.7l0.9,0.2c0.4,0.1,0.8,0.3,1,0.5
			s0.3,0.5,0.3,0.9c0,0.3-0.1,0.6-0.3,0.9c-0.2,0.2-0.4,0.5-0.8,0.6c-0.3,0.1-0.7,0.2-1.1,0.2c-0.6,0-1.1-0.1-1.5-0.5
			S75.5,22.6,75.5,22.1L75.5,22.1z"/>
		<path class="st2" d="M80.3,18.3h3.2v0.9h-3.2V18.3z M82.4,23.7h-1v-7.1h1V23.7z"/>
		<path class="st2" d="M88.4,23.7h-1v-5.4h0.9l0.1,0.8c0.2-0.3,0.4-0.5,0.7-0.7s0.7-0.3,1.1-0.3c0.7,0,1.2,0.2,1.6,0.6
			s0.5,1,0.5,1.6v3.3h-1v-3.1c0-0.5-0.1-0.9-0.3-1.2c-0.2-0.2-0.6-0.4-0.9-0.4c-0.5,0-0.9,0.2-1.1,0.5s-0.4,0.7-0.4,1.3L88.4,23.7
			L88.4,23.7z"/>
		<path class="st2" d="M96,23.8c-0.5,0-1-0.1-1.4-0.4s-0.7-0.6-0.9-1c-0.2-0.4-0.3-0.9-0.3-1.5s0.1-1.1,0.3-1.5s0.5-0.8,0.9-1
			s0.8-0.4,1.4-0.4s1,0.1,1.3,0.3s0.7,0.5,0.9,0.9s0.3,0.9,0.3,1.4v0.4h-4.6l0-0.7h3.6c0-0.5-0.1-0.8-0.4-1.1
			c-0.3-0.3-0.6-0.4-1.1-0.4c-0.3,0-0.6,0.1-0.9,0.2c-0.2,0.1-0.4,0.4-0.6,0.7s-0.2,0.6-0.2,1c0,0.6,0.2,1.1,0.4,1.5
			s0.7,0.5,1.3,0.5c0.4,0,0.7-0.1,1-0.2c0.3-0.2,0.4-0.4,0.5-0.7h1c-0.1,0.6-0.4,1-0.8,1.3S96.7,23.8,96,23.8L96,23.8z"/>
		<path class="st2" d="M101.8,23.8c-0.5,0-1-0.1-1.3-0.4s-0.7-0.6-0.9-1c-0.2-0.4-0.3-0.9-0.3-1.5s0.1-1,0.3-1.5s0.5-0.8,0.9-1
			s0.8-0.4,1.4-0.4c0.4,0,0.8,0.1,1.1,0.3s0.6,0.4,0.8,0.8v-3.6h1v8.1h-0.9l-0.1-1c-0.2,0.4-0.4,0.6-0.8,0.8
			C102.6,23.7,102.2,23.8,101.8,23.8z M102,22.9c0.3,0,0.7-0.1,0.9-0.2s0.4-0.4,0.6-0.7c0.1-0.3,0.2-0.6,0.2-1s-0.1-0.7-0.2-1
			c-0.1-0.3-0.3-0.5-0.6-0.7s-0.6-0.2-0.9-0.2s-0.7,0.1-0.9,0.2s-0.4,0.4-0.6,0.7s-0.2,0.6-0.2,1s0.1,0.7,0.2,1
			c0.1,0.3,0.3,0.5,0.6,0.7S101.7,22.9,102,22.9z"/>
		<path class="st2" d="M109.2,26.1v-7.8h0.9l0.1,1c0.2-0.4,0.4-0.6,0.8-0.8s0.7-0.3,1.2-0.3c0.5,0,1,0.1,1.3,0.4s0.7,0.6,0.9,1
			s0.3,0.9,0.3,1.5s-0.1,1-0.3,1.5s-0.5,0.8-0.8,1s-0.8,0.4-1.4,0.4c-0.4,0-0.8-0.1-1.2-0.3c-0.3-0.2-0.6-0.4-0.8-0.8v3.3H109.2
			L109.2,26.1z M110.3,21c0,0.4,0.1,0.7,0.2,1s0.3,0.5,0.6,0.7s0.6,0.2,0.9,0.2s0.7-0.1,0.9-0.2s0.4-0.4,0.6-0.7s0.2-0.6,0.2-1
			s-0.1-0.7-0.2-1c-0.1-0.3-0.3-0.5-0.6-0.7s-0.6-0.2-0.9-0.2s-0.7,0.1-0.9,0.2c-0.2,0.2-0.4,0.4-0.6,0.7
			C110.3,20.3,110.3,20.6,110.3,21L110.3,21z"/>
		<path class="st2" d="M117.4,23.8c-0.6,0-1-0.1-1.3-0.5s-0.5-0.7-0.5-1.2s0.2-0.9,0.5-1.2c0.3-0.3,0.8-0.5,1.5-0.5l1.7-0.1v-0.1
			c0-0.3-0.1-0.5-0.2-0.7c-0.1-0.2-0.3-0.3-0.4-0.4c-0.2-0.1-0.4-0.1-0.7-0.1c-0.4,0-0.8,0.1-1,0.3c-0.2,0.2-0.4,0.4-0.4,0.8h-0.9
			c0-0.4,0.1-0.7,0.3-1c0.2-0.3,0.5-0.5,0.8-0.6s0.8-0.2,1.2-0.2s0.8,0.1,1.2,0.2s0.6,0.4,0.8,0.7c0.2,0.3,0.3,0.7,0.3,1.2v3.4h-0.9
			l-0.1-0.9c-0.1,0.3-0.4,0.5-0.7,0.7C118.2,23.7,117.8,23.8,117.4,23.8L117.4,23.8z M117.7,23c0.5,0,0.9-0.1,1.2-0.5
			c0.3-0.3,0.4-0.7,0.4-1.2v-0.3l-1.4,0.1c-0.5,0-0.8,0.1-1,0.3c-0.2,0.2-0.3,0.4-0.3,0.6c0,0.3,0.1,0.5,0.3,0.6S117.4,23,117.7,23
			L117.7,23z M118.1,17.8c-0.4,0-0.7-0.1-0.9-0.4s-0.4-0.5-0.4-0.9c0-0.2,0.1-0.5,0.2-0.7s0.3-0.3,0.5-0.5c0.2-0.1,0.4-0.2,0.7-0.2
			s0.5,0.1,0.7,0.2s0.3,0.3,0.5,0.5c0.1,0.2,0.2,0.4,0.2,0.7s-0.1,0.5-0.2,0.6s-0.3,0.4-0.5,0.5C118.6,17.7,118.4,17.7,118.1,17.8
			L118.1,17.8z M118.1,17.1c0.2,0,0.3-0.1,0.5-0.2s0.2-0.3,0.2-0.5s-0.1-0.4-0.2-0.5c-0.1-0.1-0.3-0.2-0.5-0.2s-0.3,0.1-0.5,0.2
			s-0.2,0.3-0.2,0.5s0.1,0.4,0.2,0.5S117.9,17.1,118.1,17.1z"/>
	</g>
	<g>
		<path class="st2" d="M65.3,43.6h-1.6l4.2-11.4h1.7l4.2,11.4h-1.6l-1-2.8h-4.8L65.3,43.6z M68.5,34.6l-1.7,4.8h3.9l-1.8-4.8
			c0-0.1-0.1-0.2-0.1-0.4s-0.1-0.2-0.1-0.3c0,0.1,0,0.2-0.1,0.3C68.6,34.4,68.6,34.5,68.5,34.6z"/>
		<path class="st2" d="M75,47.1V35.9h1.3l0.1,1.4c0.3-0.5,0.6-0.9,1.1-1.2s1.1-0.4,1.7-0.4c0.7,0,1.4,0.2,1.9,0.5
			c0.5,0.3,1,0.8,1.2,1.4c0.3,0.6,0.4,1.3,0.4,2.1s-0.1,1.5-0.4,2.1c-0.3,0.6-0.7,1.1-1.2,1.5c-0.5,0.4-1.2,0.5-2,0.5
			c-0.6,0-1.2-0.1-1.7-0.4c-0.5-0.3-0.9-0.6-1.1-1.1v4.7H75z M76.5,39.8c0,0.5,0.1,1,0.3,1.4s0.5,0.7,0.8,1c0.4,0.2,0.8,0.3,1.3,0.3
			c0.5,0,0.9-0.1,1.3-0.4c0.4-0.2,0.6-0.6,0.8-1c0.2-0.4,0.3-0.9,0.3-1.4c0-0.5-0.1-1-0.3-1.4s-0.5-0.7-0.8-1
			C79.9,37.1,79.5,37,79,37c-0.5,0-0.9,0.1-1.3,0.3c-0.4,0.2-0.6,0.6-0.8,1S76.5,39.2,76.5,39.8z"/>
		<path class="st2" d="M84.5,47.1V35.9h1.3l0.1,1.4c0.3-0.5,0.6-0.9,1.1-1.2s1.1-0.4,1.7-0.4c0.7,0,1.4,0.2,1.9,0.5
			c0.5,0.3,1,0.8,1.2,1.4c0.3,0.6,0.4,1.3,0.4,2.1s-0.1,1.5-0.4,2.1c-0.3,0.6-0.7,1.1-1.2,1.5c-0.5,0.4-1.2,0.5-2,0.5
			c-0.6,0-1.2-0.1-1.7-0.4s-0.9-0.6-1.1-1.1v4.7H84.5z M86,39.8c0,0.5,0.1,1,0.3,1.4s0.5,0.7,0.8,1s0.8,0.3,1.3,0.3s0.9-0.1,1.3-0.4
			s0.6-0.6,0.8-1c0.2-0.4,0.3-0.9,0.3-1.4c0-0.5-0.1-1-0.3-1.4s-0.5-0.7-0.8-1S89,37,88.5,37s-0.9,0.1-1.3,0.3s-0.6,0.6-0.8,1
			S86,39.2,86,39.8z"/>
		<path class="st2" d="M97.9,35.3c0-0.7,0.2-1.2,0.5-1.7c0.3-0.5,0.8-0.9,1.4-1.2c0.6-0.3,1.3-0.4,2.1-0.4c0.7,0,1.4,0.1,1.9,0.4
			c0.5,0.3,1,0.6,1.3,1.1c0.3,0.5,0.5,1,0.5,1.7H104c0-0.6-0.3-1-0.6-1.3c-0.4-0.3-0.9-0.5-1.5-0.5c-0.7,0-1.3,0.2-1.7,0.5
			c-0.4,0.3-0.6,0.8-0.6,1.4c0,0.5,0.1,0.8,0.4,1.1s0.7,0.5,1.2,0.6l1.9,0.4c0.9,0.2,1.6,0.6,2.1,1.1s0.7,1.2,0.7,2
			c0,0.7-0.2,1.3-0.5,1.8s-0.8,0.9-1.4,1.2c-0.6,0.3-1.3,0.4-2.1,0.4c-0.8,0-1.4-0.1-2-0.4c-0.6-0.3-1-0.6-1.4-1.1s-0.5-1-0.6-1.7
			h1.6c0,0.5,0.2,1,0.7,1.3c0.4,0.3,1,0.5,1.7,0.5c0.8,0,1.4-0.2,1.8-0.5c0.4-0.3,0.7-0.8,0.7-1.3c0-0.5-0.1-0.8-0.4-1.1
			s-0.7-0.5-1.2-0.6l-1.9-0.4c-0.9-0.2-1.6-0.6-2.1-1.1C98.1,36.8,97.9,36.1,97.9,35.3z"/>
		<path class="st2" d="M106.6,35.9h4.5v1.2h-4.5V35.9z M109.6,43.6h-1.5V33.5h1.5V43.6z"/>
		<path class="st2" d="M111.9,39.7c0-0.8,0.2-1.5,0.5-2.1c0.3-0.6,0.8-1.1,1.4-1.4s1.3-0.5,2.1-0.5s1.5,0.2,2.1,0.5s1.1,0.8,1.4,1.4
			c0.3,0.6,0.5,1.3,0.5,2.1s-0.2,1.5-0.5,2.1c-0.3,0.6-0.8,1.1-1.4,1.4s-1.3,0.5-2.1,0.5s-1.5-0.2-2.1-0.5s-1.1-0.8-1.4-1.4
			C112,41.2,111.9,40.5,111.9,39.7z M113.4,39.7c0,0.5,0.1,1,0.3,1.4c0.2,0.4,0.5,0.7,0.9,1s0.8,0.3,1.3,0.3s0.9-0.1,1.3-0.3
			s0.7-0.6,0.9-1s0.3-0.9,0.3-1.4c0-0.5-0.1-1-0.3-1.4s-0.5-0.7-0.9-1s-0.8-0.3-1.3-0.3s-0.9,0.1-1.3,0.3s-0.7,0.6-0.9,1
			C113.5,38.7,113.4,39.2,113.4,39.7z"/>
		<path class="st2" d="M126,35.8v1.4h-0.7c-0.7,0-1.3,0.2-1.7,0.6c-0.4,0.4-0.6,1-0.6,1.7v4.1h-1.5v-7.7h1.4l0.1,1.5h-0.1
			c0.1-0.5,0.4-0.9,0.8-1.2s0.9-0.5,1.5-0.5c0.1,0,0.3,0,0.4,0C125.7,35.8,125.8,35.8,126,35.8z"/>
		<path class="st2" d="M130.4,43.8c-0.7,0-1.4-0.2-2-0.5c-0.6-0.3-1-0.8-1.4-1.4s-0.5-1.3-0.5-2.1c0-0.8,0.2-1.5,0.5-2.1
			s0.8-1.1,1.3-1.4s1.2-0.5,2-0.5c0.7,0,1.4,0.2,1.9,0.5s1,0.8,1.3,1.3c0.3,0.6,0.5,1.2,0.5,2V40l-6.6,0l0-1h5.1
			c0-0.6-0.2-1.2-0.6-1.5s-0.9-0.6-1.6-0.6c-0.5,0-0.9,0.1-1.3,0.3c-0.4,0.2-0.6,0.5-0.8,0.9c-0.2,0.4-0.3,0.9-0.3,1.5
			c0,0.9,0.2,1.6,0.6,2.1c0.4,0.5,1,0.8,1.8,0.8c0.6,0,1.1-0.1,1.4-0.3c0.4-0.2,0.6-0.6,0.7-1h1.4c-0.2,0.8-0.6,1.5-1.2,1.9
			C132.2,43.6,131.4,43.8,130.4,43.8z"/>
	</g>
</g>
</svg>
